<?xml version="1.0" encoding="UTF-8" standalone="no"?>
<svg
   xmlns:dc="http://purl.org/dc/elements/1.1/"
   xmlns:cc="http://creativecommons.org/ns#"
   xmlns:rdf="http://www.w3.org/1999/02/22-rdf-syntax-ns#"
   xmlns:svg="http://www.w3.org/2000/svg"
   xmlns="http://www.w3.org/2000/svg"
   viewBox="0 0 216.99609 172.7311"
   height="172.73111"
   width="216.99608"
   xml:space="preserve"
   version="1.1"
   id="svg2"><metadata
     id="metadata8"><rdf:RDF><cc:Work
         rdf:about=""><dc:format>image/svg+xml</dc:format><dc:type
           rdf:resource="http://purl.org/dc/dcmitype/StillImage" /><dc:title /></cc:Work></rdf:RDF></metadata><defs
     id="defs6"><filter
       height="1.464384"
       y="-0.23219199"
       width="1.2349145"
       x="-0.1174573"
       id="filter4860"
       style="color-interpolation-filters:sRGB"><feGaussianBlur
         id="feGaussianBlur4862"
         stdDeviation="48.636971" /></filter><filter
       height="1.4157267"
       y="-0.20786336"
       width="1.2496985"
       x="-0.12484924"
       id="filter4171"
       style="color-interpolation-filters:sRGB"><feGaussianBlur
         id="feGaussianBlur4173"
         stdDeviation="4.3373009" /></filter></defs><g
     transform="matrix(1.25,0,0,-1.25,314.92428,1178.9402)"
     id="g10"><g
       id="text4163"
       style="font-style:normal;font-weight:normal;font-size:50px;line-height:125%;font-family:Sans;text-align:end;letter-spacing:0px;word-spacing:0px;text-anchor:end;fill:none;fill-opacity:1;stroke:#466c8d;stroke-width:4.80000019;stroke-linecap:butt;stroke-linejoin:miter;stroke-miterlimit:4;stroke-dasharray:none;stroke-opacity:0.83137255;filter:url(#filter4171)"
       transform="scale(1,-1)"><path
         id="path22"
         style="font-style:normal;font-variant:normal;font-weight:normal;font-stretch:normal;font-family:Casual;-inkscape-font-specification:Casual;text-align:end;text-anchor:end;fill:none;fill-opacity:1;stroke:#466c8d;stroke-width:4.80000019;stroke-miterlimit:4;stroke-dasharray:none;stroke-opacity:0.83137255"
         d="m -182.54713,-855.27136 q 1.41601,-2.31934 5.41992,-4.46778 3.90625,-2.07519 8.49609,-3.29589 4.54102,-1.17188 8.78906,-1.17188 4.24805,0 6.27442,1.80664 4.12597,3.75977 6.25,10.79102 2.09961,7.00683 1.85547,14.30664 -0.21973,7.20215 -2.95411,13.33008 -2.70996,6.03027 -8.22753,7.83691 -3.05176,0.95215 -7.61719,0.58594 -4.56543,-0.31739 -9.0332,-1.9043 -4.51661,-1.61133 -7.88575,-4.3457 -3.44238,-2.70996 -4.24804,-6.49414 -0.75684,-3.75977 0.78125,-7.32422 1.61132,-3.56446 4.44336,-6.10352 2.73437,-2.49023 6.27441,-3.58886 3.49121,-1.0254 6.44531,0.19531 6.64063,2.85644 6.81153,2.7832 0.14648,0 0.5371,-0.1709 2.39258,-0.92773 2.56348,-2.73437 0.0977,-1.70899 -0.85449,-3.41797 -0.97656,-1.68457 -2.41699,-2.90527 -1.51367,-1.26954 -2.22168,-1.26954 -2.92969,0.0488 -4.58985,1.17188 -1.61132,1.02539 -3.125,2.44141 -1.5625,1.5625 -2.7832,2.56347 -1.46484,1.17188 -3.61328,1.29395 -4.39453,0.26855 -5.51758,-3.8086 -1.17187,-4.05273 0.14649,-6.10351 z m 15.55175,21.1914 q -1.63574,0 -3.10058,1.29395 -1.46485,1.29394 -0.80567,2.88086 0.70801,1.66015 3.10059,2.49023 2.36816,0.8545 3.95508,0.8545 1.3916,0.0732 2.4414,-0.80567 1.02539,-0.87891 0.46387,-2.29492 -0.63476,-1.41602 -2.51465,-2.88086 -2.00195,-1.53809 -3.54004,-1.53809 z" /><path
         id="path24"
         style="font-style:normal;font-variant:normal;font-weight:normal;font-stretch:normal;font-family:Casual;-inkscape-font-specification:Casual;text-align:end;text-anchor:end;fill:none;fill-opacity:1;stroke:#466c8d;stroke-width:4.80000019;stroke-miterlimit:4;stroke-dasharray:none;stroke-opacity:0.83137255"
         d="m -141.87331,-862.66882 q 0.21973,-1.34278 2.09961,-2.02637 1.9043,-0.70801 4.17481,-0.73242 2.27051,-0.0244 4.24804,0.63476 2.00196,0.65918 2.417,1.97754 0.92773,3.00293 0.46386,6.44531 -0.46386,3.41797 -1.26953,7.22657 -0.80566,3.78418 -1.44043,7.93457 -0.61035,4.12597 0.0488,8.52051 0.14649,1.2207 1.97754,-0.75684 1.85547,-1.97754 3.32031,-1.87988 1.66016,0.14648 2.0752,2.73437 0.43945,2.56348 -0.0732,5.76172 -0.48829,3.17383 -1.75782,6.05469 -1.26953,2.85644 -3.00293,3.56445 -3.22265,1.34277 -8.05664,1.75781 -4.83398,0.43946 -5.27343,-1.53808 -2.51465,-11.2793 -2.17286,-22.58301 0.3418,-11.32813 2.22168,-23.0957 z" /><path
         id="path26"
         style="font-style:normal;font-variant:normal;font-weight:normal;font-stretch:normal;font-family:Casual;-inkscape-font-specification:Casual;text-align:end;text-anchor:end;fill:none;fill-opacity:1;stroke:#466c8d;stroke-width:4.80000019;stroke-miterlimit:4;stroke-dasharray:none;stroke-opacity:0.83137255"
         d="m -123.22096,-857.02917 q 0.80566,-0.95215 2.09961,-3.44239 1.31836,-2.51465 4.29687,-3.24707 1.46485,-0.34179 3.83301,-0.12207 2.39258,0.19531 4.73633,0.58594 2.36816,0.39062 4.22363,0.78125 1.85547,0.36621 2.31934,0.36621 0.90332,0 0.63476,-0.85449 -0.26855,-0.87891 0.53711,-1.31836 0.781252,-0.41504 3.17383,-0.5127 2.392578,-0.12207 3.784179,1.07422 1.782227,4.71192 2.587891,11.52344 0.805664,6.81152 0.732422,13.45215 -0.07324,6.61621 -0.952149,11.91406 -0.878906,5.27344 -2.441406,6.88477 -3.149414,3.27148 -8.520507,3.97949 -5.34668,0.70801 -10.57129,-0.0977 -6.61621,-1.02539 -9.00879,-5.78613 -2.36816,-4.78516 -0.58594,-11.05957 0.48828,-1.68457 4.44336,-1.53809 3.9795,0.12207 5.66407,0.95215 1.80664,0.90332 1.31835,3.10059 -0.46386,2.17285 1.17188,3.58886 1.02539,0.92774 3.24707,0.3418 2.22168,-0.61035 3.61328,-1.36719 2.51465,-1.36718 2.905275,-5.02929 0.390625,-3.68653 0.02441,-6.05469 -0.292969,-1.75781 -0.341799,0.14648 -0.0488,1.9043 -2.4414,2.36817 -2.417,0.48828 -8.1543,0.78125 -5.73731,0.29297 -8.25195,-0.19531 -2.56348,-0.46387 -3.00293,-1.75782 -0.43946,-1.29394 -0.92774,-1.7334 -0.24414,-0.21972 -0.43945,-2.83203 -0.19531,-2.6123 -0.24414,-5.76172 -0.0732,-3.14941 0.0244,-5.88378 0.0977,-2.75879 0.5127,-3.24707 z m 13.42773,1.44042 q -2.34375,0.3418 -3.00293,4.19922 -0.63476,3.83301 0.83008,5.10254 1.44043,1.26953 3.88184,1.31836 2.46582,0.0488 3.85742,-1.31836 1.44043,-1.46484 1.46484,-3.95508 0.0488,-2.49023 -0.97656,-4.27246 -0.80566,-1.31836 -2.68555,-1.29394 -1.85547,0 -3.36914,0.21972 z" /></g><g
       id="text4816"
       style="font-style:normal;font-weight:normal;font-size:500px;line-height:125%;font-family:Sans;text-align:start;letter-spacing:0px;word-spacing:0px;text-anchor:start;fill:none;fill-opacity:0.83137255;stroke:#466c8d;stroke-width:48.00000381;stroke-linecap:butt;stroke-linejoin:miter;stroke-miterlimit:4;stroke-dasharray:none;stroke-opacity:0.83137255;filter:url(#filter4860)"
       transform="matrix(0.1,0,0,-0.1,1074.7184,45.410637)"><path
         id="path29"
         style="font-style:normal;font-variant:normal;font-weight:normal;font-stretch:normal;font-family:Casual;-inkscape-font-specification:Casual;fill:none;fill-opacity:0.83137255;stroke:#466c8d;stroke-width:48.00000381;stroke-miterlimit:4;stroke-dasharray:none;stroke-opacity:0.83137255"
         d="m -13131.277,-8773.2764 q 35.4,-52.2461 106.445,-63.7207 71.289,-11.7187 120.605,-2.9297 49.073,9.0332 74.952,56.6407 26.123,47.6074 36.132,102.539 1.221,8.0567 -16.601,16.3575 -17.822,8.0566 -41.016,12.9394 -22.949,4.8828 -44.433,4.6387 -21.485,-0.4883 -27.588,-9.7656 -6.348,-9.2774 -0.977,-31.9825 5.371,-22.705 -4.883,-34.9121 -20.996,-24.414 -66.162,-11.9629 -20.508,6.1035 -28.076,24.17 -7.568,17.8222 -6.592,38.0859 1.221,20.2637 8.789,38.0859 7.569,17.8223 17.578,23.4375 9.766,5.8594 37.598,2.6856 28.076,-3.418 59.57,-9.0332 31.495,-5.6153 59.327,-10.2539 27.832,-4.6387 37.597,-1.709 19.043,6.1035 18.555,47.1191 -0.244,41.0156 -7.568,56.3965 -3.907,7.8125 -29.297,9.2773 -25.147,1.2208 -54.199,2.6856 -29.053,1.4648 -53.223,6.3477 -23.926,4.6386 -25.391,18.5546 -1.709,14.4043 7.569,30.0293 9.277,15.625 19.775,30.2735 10.742,14.4043 17.822,26.6113 7.08,12.207 1.221,19.2871 -9.033,10.9863 -56.397,19.2871 -47.119,8.3008 -67.871,5.3711 -34.912,-5.1269 -60.547,-60.5469 -25.39,-55.4199 -38.574,-125.2441 -13.183,-70.0684 -12.695,-136.2305 0.732,-66.1621 18.555,-92.5293 z" /><path
         id="path31"
         style="font-style:normal;font-variant:normal;font-weight:normal;font-stretch:normal;font-family:Casual;-inkscape-font-specification:Casual;fill:none;fill-opacity:0.83137255;stroke:#466c8d;stroke-width:48.00000381;stroke-miterlimit:4;stroke-dasharray:none;stroke-opacity:0.83137255"
         d="m -12669.852,-8373.6182 q -53.466,5.8594 -86.914,-60.0586 -33.203,-66.1621 -38.086,-149.9023 -5.127,-83.9844 21.973,-158.6914 27.344,-74.9512 95.947,-87.1582 23.926,-4.1504 40.528,4.8828 16.601,8.7891 27.832,20.752 11.474,11.7187 18.31,21.7285 7.08,10.0097 11.475,8.0566 7.08,-3.418 14.16,-33.9355 7.08,-30.5176 31.982,-39.5508 87.647,-32.2266 144.532,16.8457 56.884,48.8281 72.998,151.3672 3.906,26.123 4.15,61.2793 0.244,34.9121 -4.394,69.3359 -4.395,34.1797 -14.405,62.9883 -9.765,28.5644 -25.39,41.748 -42.969,35.8887 -77.637,7.0801 -34.668,-28.8086 -37.842,-67.6269 -1.953,-20.2637 3.174,-47.1192 5.127,-27.0996 10.254,-54.4433 5.127,-27.5879 6.592,-52.2461 1.465,-24.6582 -7.325,-40.0391 -15.136,-25.6348 -22.705,-7.0801 -7.324,18.5547 -14.404,52.002 -6.836,33.2031 -17.09,66.6504 -10.009,33.2031 -30.029,36.8652 -20.264,3.9063 -41.504,-27.0996 -20.996,-31.25 -38.818,-61.2793 -17.823,-30.0293 -30.03,-41.0156 -11.962,-10.9864 -13.916,32.959 -0.976,16.8457 10.743,38.8183 11.962,21.7285 26.123,45.4102 14.404,23.4375 25.879,46.875 11.718,23.4375 10.498,43.2129 -2.442,39.5507 -21.241,67.1386 -18.798,27.3438 -55.42,31.25 z" /><path
         id="path33"
         style="font-style:normal;font-variant:normal;font-weight:normal;font-stretch:normal;font-family:Casual;-inkscape-font-specification:Casual;fill:none;fill-opacity:0.83137255;stroke:#466c8d;stroke-width:48.00000381;stroke-miterlimit:4;stroke-dasharray:none;stroke-opacity:0.83137255"
         d="m -12321.707,-8816.9775 q -1.953,-12.4512 14.404,-22.461 16.602,-10.2539 38.086,-15.625 21.729,-5.6152 41.748,-5.6152 20.264,-0.2442 25.391,7.3242 20.264,30.2734 30.517,83.252 10.254,52.9785 13.428,114.9902 3.418,61.7676 1.221,125.9766 -1.953,64.2089 -6.348,116.6992 -1.709,18.0664 -26.611,29.0527 -24.658,10.9863 -53.223,13.1836 -28.564,1.9531 -51.269,-5.8594 -22.705,-7.8125 -20.02,-27.5879 13.428,-96.6796 11.963,-197.5097 -1.221,-100.8301 -19.287,-215.8203 z" /></g><g
       id="text4812"
       style="font-style:normal;font-weight:normal;font-size:50px;line-height:125%;font-family:Sans;text-align:start;letter-spacing:0px;word-spacing:0px;text-anchor:start;fill:#ffffff;fill-opacity:1;stroke:none;stroke-width:1px;stroke-linecap:butt;stroke-linejoin:miter;stroke-opacity:1"
       transform="scale(1,-1)"><path
         id="path36"
         style="font-style:normal;font-variant:normal;font-weight:normal;font-stretch:normal;font-family:Casual;-inkscape-font-specification:Casual;fill:#ffffff;fill-opacity:1"
         d="m -238.40933,-922.73828 q 3.54004,-5.22461 10.64453,-6.37207 7.12891,-1.17188 12.06055,-0.29297 4.90722,0.90332 7.49511,5.66406 2.61231,4.76074 3.61328,10.25391 0.12207,0.80566 -1.66015,1.63574 -1.78223,0.80566 -4.10156,1.29395 -2.29493,0.48828 -4.44336,0.46386 -2.14844,-0.0488 -2.75879,-0.97656 -0.63477,-0.92773 -0.0977,-3.19824 0.53711,-2.27051 -0.48828,-3.49121 -2.09961,-2.44141 -6.61621,-1.19629 -2.05078,0.61035 -2.80762,2.41699 -0.75683,1.78223 -0.65918,3.80859 0.12207,2.02637 0.87891,3.8086 0.75683,1.78222 1.75781,2.34375 0.97656,0.58594 3.75977,0.26855 2.80761,-0.34179 5.95703,-0.90332 3.14941,-0.56152 5.93261,-1.02539 2.78321,-0.46387 3.75977,-0.1709 1.9043,0.61036 1.85547,4.71192 -0.0244,4.10156 -0.75684,5.63965 -0.39062,0.78125 -2.92968,0.92773 -2.51465,0.12207 -5.41993,0.26856 -2.90527,0.14648 -5.32226,0.63476 -2.39258,0.46387 -2.53906,1.85547 -0.1709,1.44043 0.75683,3.00293 0.92774,1.5625 1.97754,3.02734 1.07422,1.44043 1.78223,2.66114 0.708,1.2207 0.12207,1.92871 -0.90332,1.09863 -5.63965,1.92871 -4.71192,0.83008 -6.78711,0.53711 -3.49121,-0.5127 -6.05469,-6.05469 -2.53906,-5.54199 -3.85742,-12.52441 -1.31836,-7.00684 -1.26953,-13.62305 0.0732,-6.61621 1.85547,-9.25293 z" /><path
         id="path38"
         style="font-style:normal;font-variant:normal;font-weight:normal;font-stretch:normal;font-family:Casual;-inkscape-font-specification:Casual;fill:#ffffff;fill-opacity:1"
         d="m -192.26675,-882.77246 q -5.34668,0.58594 -8.69141,-6.00586 -3.32031,-6.61621 -3.80859,-14.99023 -0.5127,-8.39844 2.19726,-15.86915 2.73438,-7.49511 9.59473,-8.71582 2.39258,-0.41503 4.05273,0.48829 1.66016,0.8789 2.78321,2.07519 1.14746,1.17188 1.83105,2.17285 0.70801,1.00098 1.14746,0.80567 0.70801,-0.3418 1.41602,-3.39356 0.708,-3.05176 3.19824,-3.95508 8.76465,-3.22265 14.45312,1.68457 5.68848,4.88282 7.29981,15.13672 0.39062,2.61231 0.41504,6.12793 0.0244,3.49121 -0.43946,6.9336 -0.43945,3.41797 -1.44043,6.29882 -0.97656,2.85645 -2.53906,4.17481 -4.29687,3.58887 -7.76367,0.70801 -3.4668,-2.88086 -3.78418,-6.7627 -0.19531,-2.02637 0.31738,-4.71191 0.5127,-2.70996 1.02539,-5.44434 0.5127,-2.75879 0.65918,-5.22461 0.14649,-2.46582 -0.73242,-4.0039 -1.51367,-2.56348 -2.27051,-0.70801 -0.73242,1.85547 -1.44043,5.20019 -0.68359,3.32032 -1.70898,6.66504 -1.00098,3.32032 -3.00293,3.68653 -2.02637,0.39062 -4.15039,-2.70996 -2.09961,-3.125 -3.88184,-6.12793 -1.78222,-3.00293 -3.00293,-4.10157 -1.19628,-1.09863 -1.3916,3.2959 -0.0976,1.68457 1.07422,3.88184 1.19629,2.17285 2.61231,4.54101 1.44043,2.34375 2.58789,4.6875 1.17187,2.34375 1.0498,4.32129 -0.24414,3.95508 -2.12402,6.71387 -1.87988,2.73437 -5.54199,3.125 z" /><path
         id="path40"
         style="font-style:normal;font-variant:normal;font-weight:normal;font-stretch:normal;font-family:Casual;-inkscape-font-specification:Casual;fill:#ffffff;fill-opacity:1"
         d="m -157.4523,-927.1084 q -0.19531,-1.24512 1.44043,-2.24609 1.66015,-1.02539 3.80859,-1.5625 2.17285,-0.56153 4.17481,-0.56153 2.02636,-0.0244 2.53906,0.73243 2.02637,3.02734 3.05176,8.32519 1.02539,5.29785 1.34277,11.49903 0.3418,6.17675 0.12207,12.59765 -0.19531,6.4209 -0.63476,11.66992 -0.1709,1.80664 -2.66114,2.90528 -2.46582,1.09863 -5.32226,1.31836 -2.85645,0.19531 -5.12696,-0.58594 -2.2705,-0.78125 -2.00195,-2.75879 1.34277,-9.66797 1.19629,-19.75098 -0.12207,-10.083 -1.92871,-21.58203 z" /></g><g
       id="text4151"
       style="font-style:normal;font-weight:normal;font-size:50px;line-height:125%;font-family:Sans;text-align:end;letter-spacing:0px;word-spacing:0px;text-anchor:end;fill:#ffffff;fill-opacity:1;stroke:none;stroke-width:1px;stroke-linecap:butt;stroke-linejoin:miter;stroke-opacity:1"
       transform="scale(1,-1)"><path
         id="path43"
         style="font-style:normal;font-variant:normal;font-weight:normal;font-stretch:normal;font-family:Casual;-inkscape-font-specification:Casual;text-align:end;text-anchor:end;fill:#ffffff;fill-opacity:1"
         d="m -182.54713,-855.27136 q 1.41601,-2.31934 5.41992,-4.46778 3.90625,-2.07519 8.49609,-3.29589 4.54102,-1.17188 8.78906,-1.17188 4.24805,0 6.27442,1.80664 4.12597,3.75977 6.25,10.79102 2.09961,7.00683 1.85547,14.30664 -0.21973,7.20215 -2.95411,13.33008 -2.70996,6.03027 -8.22753,7.83691 -3.05176,0.95215 -7.61719,0.58594 -4.56543,-0.31739 -9.0332,-1.9043 -4.51661,-1.61133 -7.88575,-4.3457 -3.44238,-2.70996 -4.24804,-6.49414 -0.75684,-3.75977 0.78125,-7.32422 1.61132,-3.56446 4.44336,-6.10352 2.73437,-2.49023 6.27441,-3.58886 3.49121,-1.0254 6.44531,0.19531 6.64063,2.85644 6.81153,2.7832 0.14648,0 0.5371,-0.1709 2.39258,-0.92773 2.56348,-2.73437 0.0977,-1.70899 -0.85449,-3.41797 -0.97656,-1.68457 -2.41699,-2.90527 -1.51367,-1.26954 -2.22168,-1.26954 -2.92969,0.0488 -4.58985,1.17188 -1.61132,1.02539 -3.125,2.44141 -1.5625,1.5625 -2.7832,2.56347 -1.46484,1.17188 -3.61328,1.29395 -4.39453,0.26855 -5.51758,-3.8086 -1.17187,-4.05273 0.14649,-6.10351 z m 15.55175,21.1914 q -1.63574,0 -3.10058,1.29395 -1.46485,1.29394 -0.80567,2.88086 0.70801,1.66015 3.10059,2.49023 2.36816,0.8545 3.95508,0.8545 1.3916,0.0732 2.4414,-0.80567 1.02539,-0.87891 0.46387,-2.29492 -0.63476,-1.41602 -2.51465,-2.88086 -2.00195,-1.53809 -3.54004,-1.53809 z" /><path
         id="path45"
         style="font-style:normal;font-variant:normal;font-weight:normal;font-stretch:normal;font-family:Casual;-inkscape-font-specification:Casual;text-align:end;text-anchor:end;fill:#ffffff;fill-opacity:1"
         d="m -141.87331,-862.66882 q 0.21973,-1.34278 2.09961,-2.02637 1.9043,-0.70801 4.17481,-0.73242 2.27051,-0.0244 4.24804,0.63476 2.00196,0.65918 2.417,1.97754 0.92773,3.00293 0.46386,6.44531 -0.46386,3.41797 -1.26953,7.22657 -0.80566,3.78418 -1.44043,7.93457 -0.61035,4.12597 0.0488,8.52051 0.14649,1.2207 1.97754,-0.75684 1.85547,-1.97754 3.32031,-1.87988 1.66016,0.14648 2.0752,2.73437 0.43945,2.56348 -0.0732,5.76172 -0.48829,3.17383 -1.75782,6.05469 -1.26953,2.85644 -3.00293,3.56445 -3.22265,1.34277 -8.05664,1.75781 -4.83398,0.43946 -5.27343,-1.53808 -2.51465,-11.2793 -2.17286,-22.58301 0.3418,-11.32813 2.22168,-23.0957 z" /><path
         id="path47"
         style="font-style:normal;font-variant:normal;font-weight:normal;font-stretch:normal;font-family:Casual;-inkscape-font-specification:Casual;text-align:end;text-anchor:end;fill:#ffffff;fill-opacity:1"
         d="m -123.22096,-857.02917 q 0.80566,-0.95215 2.09961,-3.44239 1.31836,-2.51465 4.29687,-3.24707 1.46485,-0.34179 3.83301,-0.12207 2.39258,0.19531 4.73633,0.58594 2.36816,0.39062 4.22363,0.78125 1.85547,0.36621 2.31934,0.36621 0.90332,0 0.63476,-0.85449 -0.26855,-0.87891 0.53711,-1.31836 0.781252,-0.41504 3.17383,-0.5127 2.392578,-0.12207 3.784179,1.07422 1.782227,4.71192 2.587891,11.52344 0.805664,6.81152 0.732422,13.45215 -0.07324,6.61621 -0.952149,11.91406 -0.878906,5.27344 -2.441406,6.88477 -3.149414,3.27148 -8.520507,3.97949 -5.34668,0.70801 -10.57129,-0.0977 -6.61621,-1.02539 -9.00879,-5.78613 -2.36816,-4.78516 -0.58594,-11.05957 0.48828,-1.68457 4.44336,-1.53809 3.9795,0.12207 5.66407,0.95215 1.80664,0.90332 1.31835,3.10059 -0.46386,2.17285 1.17188,3.58886 1.02539,0.92774 3.24707,0.3418 2.22168,-0.61035 3.61328,-1.36719 2.51465,-1.36718 2.905275,-5.02929 0.390625,-3.68653 0.02441,-6.05469 -0.292969,-1.75781 -0.341799,0.14648 -0.0488,1.9043 -2.4414,2.36817 -2.417,0.48828 -8.1543,0.78125 -5.73731,0.29297 -8.25195,-0.19531 -2.56348,-0.46387 -3.00293,-1.75782 -0.43946,-1.29394 -0.92774,-1.7334 -0.24414,-0.21972 -0.43945,-2.83203 -0.19531,-2.6123 -0.24414,-5.76172 -0.0732,-3.14941 0.0244,-5.88378 0.0977,-2.75879 0.5127,-3.24707 z m 13.42773,1.44042 q -2.34375,0.3418 -3.00293,4.19922 -0.63476,3.83301 0.83008,5.10254 1.44043,1.26953 3.88184,1.31836 2.46582,0.0488 3.85742,-1.31836 1.44043,-1.46484 1.46484,-3.95508 0.0488,-2.49023 -0.97656,-4.27246 -0.80566,-1.31836 -2.68555,-1.29394 -1.85547,0 -3.36914,0.21972 z" /></g></g></svg>